<mxfile host="Electron" agent="Mozilla/5.0 (Windows NT 10.0; Win64; x64) AppleWebKit/537.36 (KHTML, like Gecko) draw.io/28.1.2 Chrome/138.0.7204.243 Electron/37.4.0 Safari/537.36" version="28.1.2">
  <diagram name="Page-1" id="0nGK6oB3CFvSjH_BTdJx">
    <mxGraphModel dx="3781" dy="1051" grid="1" gridSize="10" guides="1" tooltips="1" connect="1" arrows="1" fold="1" page="1" pageScale="1" pageWidth="850" pageHeight="1100" math="0" shadow="0">
      <root>
        <mxCell id="0" />
        <mxCell id="1" parent="0" />
        <mxCell id="wONwnX8xnfEjbuY0eT6S-3" style="edgeStyle=orthogonalEdgeStyle;rounded=0;orthogonalLoop=1;jettySize=auto;html=1;" edge="1" parent="1" source="wONwnX8xnfEjbuY0eT6S-1">
          <mxGeometry relative="1" as="geometry">
            <mxPoint x="5" y="350" as="targetPoint" />
          </mxGeometry>
        </mxCell>
        <mxCell id="wONwnX8xnfEjbuY0eT6S-1" value="&lt;div&gt;GET /sessions?filter::doctorId::eq::3&amp;amp;filter::workingTime_startTime::gt::&quot;9:00&quot;&amp;amp;order::firstName::desc&amp;amp;pagination::pageNumber::10&amp;amp;pagination::pageSize::5&lt;/div&gt;" style="rounded=0;whiteSpace=wrap;html=1;" vertex="1" parent="1">
          <mxGeometry x="-410" y="250" width="830" height="30" as="geometry" />
        </mxCell>
        <mxCell id="wONwnX8xnfEjbuY0eT6S-2" value="Query String" style="text;html=1;align=center;verticalAlign=middle;resizable=0;points=[];autosize=1;strokeColor=none;fillColor=none;" vertex="1" parent="1">
          <mxGeometry x="-40" y="210" width="90" height="30" as="geometry" />
        </mxCell>
        <mxCell id="wONwnX8xnfEjbuY0eT6S-16" value="" style="edgeStyle=orthogonalEdgeStyle;rounded=0;orthogonalLoop=1;jettySize=auto;html=1;" edge="1" parent="1" source="wONwnX8xnfEjbuY0eT6S-4" target="wONwnX8xnfEjbuY0eT6S-15">
          <mxGeometry relative="1" as="geometry" />
        </mxCell>
        <mxCell id="wONwnX8xnfEjbuY0eT6S-4" value="ICompiler&amp;lt;T&amp;gt;&lt;div&gt;here we are using a doctor as example&lt;/div&gt;" style="rounded=0;whiteSpace=wrap;html=1;" vertex="1" parent="1">
          <mxGeometry x="-122.5" y="350" width="255" height="60" as="geometry" />
        </mxCell>
        <mxCell id="wONwnX8xnfEjbuY0eT6S-45" value="" style="edgeStyle=orthogonalEdgeStyle;rounded=0;orthogonalLoop=1;jettySize=auto;html=1;" edge="1" parent="1" source="wONwnX8xnfEjbuY0eT6S-42" target="wONwnX8xnfEjbuY0eT6S-44">
          <mxGeometry relative="1" as="geometry" />
        </mxCell>
        <mxCell id="wONwnX8xnfEjbuY0eT6S-42" value="IR(intermediate representation)&lt;br&gt;&lt;br&gt;will take the tokens from the tokenizer (nodes)&lt;div&gt;and return IR (Commands)&lt;/div&gt;" style="rounded=0;whiteSpace=wrap;html=1;" vertex="1" parent="1">
          <mxGeometry x="-470" y="560" width="255" height="60" as="geometry" />
        </mxCell>
        <mxCell id="wONwnX8xnfEjbuY0eT6S-6" value="Doctor" style="swimlane;fontStyle=1;align=center;verticalAlign=top;childLayout=stackLayout;horizontal=1;startSize=26;horizontalStack=0;resizeParent=1;resizeParentMax=0;resizeLast=0;collapsible=1;marginBottom=0;whiteSpace=wrap;html=1;" vertex="1" parent="1">
          <mxGeometry x="-620" y="210" width="195" height="112" as="geometry" />
        </mxCell>
        <mxCell id="wONwnX8xnfEjbuY0eT6S-7" value="+ doctorId:uuid" style="text;strokeColor=none;fillColor=none;align=left;verticalAlign=top;spacingLeft=4;spacingRight=4;overflow=hidden;rotatable=0;points=[[0,0.5],[1,0.5]];portConstraint=eastwest;whiteSpace=wrap;html=1;" vertex="1" parent="wONwnX8xnfEjbuY0eT6S-6">
          <mxGeometry y="26" width="195" height="26" as="geometry" />
        </mxCell>
        <mxCell id="wONwnX8xnfEjbuY0eT6S-8" value="" style="line;strokeWidth=1;fillColor=none;align=left;verticalAlign=middle;spacingTop=-1;spacingLeft=3;spacingRight=3;rotatable=0;labelPosition=right;points=[];portConstraint=eastwest;strokeColor=inherit;" vertex="1" parent="wONwnX8xnfEjbuY0eT6S-6">
          <mxGeometry y="52" width="195" height="8" as="geometry" />
        </mxCell>
        <mxCell id="wONwnX8xnfEjbuY0eT6S-12" style="edgeStyle=orthogonalEdgeStyle;rounded=0;orthogonalLoop=1;jettySize=auto;html=1;" edge="1" parent="wONwnX8xnfEjbuY0eT6S-6" source="wONwnX8xnfEjbuY0eT6S-9">
          <mxGeometry relative="1" as="geometry">
            <mxPoint x="-80" y="73" as="targetPoint" />
          </mxGeometry>
        </mxCell>
        <mxCell id="wONwnX8xnfEjbuY0eT6S-13" value="WorkingTime:&lt;br&gt;+ startTime&lt;div&gt;&lt;span style=&quot;background-color: light-dark(#ffffff, var(--ge-dark-color, #121212)); color: light-dark(rgb(0, 0, 0), rgb(255, 255, 255));&quot;&gt;+ endTime&lt;/span&gt;&lt;/div&gt;" style="edgeLabel;html=1;align=center;verticalAlign=middle;resizable=0;points=[];" vertex="1" connectable="0" parent="wONwnX8xnfEjbuY0eT6S-12">
          <mxGeometry x="1" y="2" relative="1" as="geometry">
            <mxPoint x="-1" as="offset" />
          </mxGeometry>
        </mxCell>
        <mxCell id="wONwnX8xnfEjbuY0eT6S-9" value="+ workingTime:WorkingTime" style="text;strokeColor=none;fillColor=none;align=left;verticalAlign=top;spacingLeft=4;spacingRight=4;overflow=hidden;rotatable=0;points=[[0,0.5],[1,0.5]];portConstraint=eastwest;whiteSpace=wrap;html=1;" vertex="1" parent="wONwnX8xnfEjbuY0eT6S-6">
          <mxGeometry y="60" width="195" height="26" as="geometry" />
        </mxCell>
        <mxCell id="wONwnX8xnfEjbuY0eT6S-11" value="+ firstName:string" style="text;strokeColor=none;fillColor=none;align=left;verticalAlign=top;spacingLeft=4;spacingRight=4;overflow=hidden;rotatable=0;points=[[0,0.5],[1,0.5]];portConstraint=eastwest;whiteSpace=wrap;html=1;" vertex="1" parent="wONwnX8xnfEjbuY0eT6S-6">
          <mxGeometry y="86" width="195" height="26" as="geometry" />
        </mxCell>
        <mxCell id="wONwnX8xnfEjbuY0eT6S-15" value="Parser&lt;div&gt;(checking if the syntax is correct)&lt;/div&gt;&lt;div&gt;each part has (::) and parts seperated by &amp;amp;&lt;/div&gt;" style="rounded=0;whiteSpace=wrap;html=1;" vertex="1" parent="1">
          <mxGeometry x="-457.5" y="350" width="255" height="60" as="geometry" />
        </mxCell>
        <mxCell id="wONwnX8xnfEjbuY0eT6S-20" style="edgeStyle=orthogonalEdgeStyle;rounded=0;orthogonalLoop=1;jettySize=auto;html=1;entryX=0.987;entryY=0.479;entryDx=0;entryDy=0;entryPerimeter=0;" edge="1" parent="1" source="wONwnX8xnfEjbuY0eT6S-18" target="wONwnX8xnfEjbuY0eT6S-22">
          <mxGeometry relative="1" as="geometry">
            <mxPoint x="-570.0000000000002" y="480" as="targetPoint" />
          </mxGeometry>
        </mxCell>
        <mxCell id="wONwnX8xnfEjbuY0eT6S-33" value="Tokinize" style="edgeLabel;html=1;align=center;verticalAlign=middle;resizable=0;points=[];" vertex="1" connectable="0" parent="wONwnX8xnfEjbuY0eT6S-20">
          <mxGeometry x="-0.0423" y="1" relative="1" as="geometry">
            <mxPoint x="1" y="1" as="offset" />
          </mxGeometry>
        </mxCell>
        <mxCell id="wONwnX8xnfEjbuY0eT6S-18" value="Tokenizer&lt;div&gt;Seperate queryString into nodes&lt;/div&gt;&lt;div&gt;where each node has a&amp;nbsp; defining element&lt;/div&gt;" style="rounded=0;whiteSpace=wrap;html=1;" vertex="1" parent="1">
          <mxGeometry x="-470" y="450" width="255" height="60" as="geometry" />
        </mxCell>
        <mxCell id="wONwnX8xnfEjbuY0eT6S-30" style="edgeStyle=orthogonalEdgeStyle;rounded=0;orthogonalLoop=1;jettySize=auto;html=1;entryX=0.987;entryY=0.462;entryDx=0;entryDy=0;entryPerimeter=0;" edge="1" parent="1" source="wONwnX8xnfEjbuY0eT6S-22" target="wONwnX8xnfEjbuY0eT6S-26">
          <mxGeometry relative="1" as="geometry">
            <mxPoint x="-850" y="300" as="targetPoint" />
            <Array as="points">
              <mxPoint x="-850" y="480" />
              <mxPoint x="-850" y="318" />
            </Array>
          </mxGeometry>
        </mxCell>
        <mxCell id="wONwnX8xnfEjbuY0eT6S-31" style="edgeStyle=orthogonalEdgeStyle;rounded=0;orthogonalLoop=1;jettySize=auto;html=1;entryX=1;entryY=0.5;entryDx=0;entryDy=0;" edge="1" parent="1" source="wONwnX8xnfEjbuY0eT6S-22" target="wONwnX8xnfEjbuY0eT6S-27">
          <mxGeometry relative="1" as="geometry" />
        </mxCell>
        <mxCell id="wONwnX8xnfEjbuY0eT6S-22" value="If the node first element starts with:&lt;br&gt;1- filter -&amp;gt; filterNode&lt;div&gt;2-order -&amp;gt; orderNode&lt;/div&gt;&lt;div&gt;3-pagination -&amp;gt; paginationNode&lt;/div&gt;" style="rounded=0;whiteSpace=wrap;html=1;" vertex="1" parent="1">
          <mxGeometry x="-830" y="450" width="255" height="60" as="geometry" />
        </mxCell>
        <mxCell id="wONwnX8xnfEjbuY0eT6S-26" value="filterNode should expect four value&lt;div&gt;(filter::property::operator::value)&lt;/div&gt;" style="rounded=0;whiteSpace=wrap;html=1;" vertex="1" parent="1">
          <mxGeometry x="-1140" y="290" width="255" height="60" as="geometry" />
        </mxCell>
        <mxCell id="wONwnX8xnfEjbuY0eT6S-27" value="OrderNode should expect three value&lt;div&gt;(order::property::descORasc)&lt;/div&gt;" style="rounded=0;whiteSpace=wrap;html=1;" vertex="1" parent="1">
          <mxGeometry x="-1140" y="400" width="255" height="60" as="geometry" />
        </mxCell>
        <mxCell id="wONwnX8xnfEjbuY0eT6S-35" value="OrderNode should expect three value&lt;div&gt;(order::property::descORasc)&lt;/div&gt;" style="rounded=0;whiteSpace=wrap;html=1;" vertex="1" parent="1">
          <mxGeometry x="-1480" y="400" width="255" height="60" as="geometry" />
        </mxCell>
        <mxCell id="wONwnX8xnfEjbuY0eT6S-28" value="Pagination can only have two nodes in the queryString with the schema:&lt;br&gt;&lt;div&gt;(pagination::property_ofPagination::value)&lt;/div&gt;&lt;div&gt;&lt;br&gt;&lt;/div&gt;&lt;div&gt;can be either :&lt;br&gt;(pagination::pageNumber::value)&lt;/div&gt;&lt;div&gt;or&lt;/div&gt;&lt;div&gt;(pagination::pageSize::value)&lt;/div&gt;" style="rounded=0;whiteSpace=wrap;html=1;" vertex="1" parent="1">
          <mxGeometry x="-1147.5" y="490" width="270" height="160" as="geometry" />
        </mxCell>
        <mxCell id="wONwnX8xnfEjbuY0eT6S-19" style="edgeStyle=orthogonalEdgeStyle;rounded=0;orthogonalLoop=1;jettySize=auto;html=1;entryX=0.985;entryY=0.547;entryDx=0;entryDy=0;entryPerimeter=0;" edge="1" parent="1" source="wONwnX8xnfEjbuY0eT6S-4" target="wONwnX8xnfEjbuY0eT6S-18">
          <mxGeometry relative="1" as="geometry">
            <Array as="points">
              <mxPoint x="5" y="470" />
              <mxPoint x="-219" y="470" />
            </Array>
          </mxGeometry>
        </mxCell>
        <mxCell id="wONwnX8xnfEjbuY0eT6S-32" style="edgeStyle=orthogonalEdgeStyle;rounded=0;orthogonalLoop=1;jettySize=auto;html=1;entryX=0.983;entryY=0.65;entryDx=0;entryDy=0;entryPerimeter=0;" edge="1" parent="1" source="wONwnX8xnfEjbuY0eT6S-22" target="wONwnX8xnfEjbuY0eT6S-28">
          <mxGeometry relative="1" as="geometry" />
        </mxCell>
        <mxCell id="wONwnX8xnfEjbuY0eT6S-36" style="edgeStyle=orthogonalEdgeStyle;rounded=0;orthogonalLoop=1;jettySize=auto;html=1;entryX=0.524;entryY=0.111;entryDx=0;entryDy=0;entryPerimeter=0;" edge="1" parent="1" source="wONwnX8xnfEjbuY0eT6S-26" target="wONwnX8xnfEjbuY0eT6S-35">
          <mxGeometry relative="1" as="geometry" />
        </mxCell>
        <mxCell id="wONwnX8xnfEjbuY0eT6S-37" style="edgeStyle=orthogonalEdgeStyle;rounded=0;orthogonalLoop=1;jettySize=auto;html=1;entryX=0.98;entryY=0.5;entryDx=0;entryDy=0;entryPerimeter=0;" edge="1" parent="1" source="wONwnX8xnfEjbuY0eT6S-27" target="wONwnX8xnfEjbuY0eT6S-35">
          <mxGeometry relative="1" as="geometry" />
        </mxCell>
        <mxCell id="wONwnX8xnfEjbuY0eT6S-38" style="edgeStyle=orthogonalEdgeStyle;rounded=0;orthogonalLoop=1;jettySize=auto;html=1;entryX=0.522;entryY=0.993;entryDx=0;entryDy=0;entryPerimeter=0;" edge="1" parent="1" source="wONwnX8xnfEjbuY0eT6S-28" target="wONwnX8xnfEjbuY0eT6S-35">
          <mxGeometry relative="1" as="geometry" />
        </mxCell>
        <mxCell id="wONwnX8xnfEjbuY0eT6S-43" style="edgeStyle=orthogonalEdgeStyle;rounded=0;orthogonalLoop=1;jettySize=auto;html=1;entryX=1.003;entryY=0.596;entryDx=0;entryDy=0;entryPerimeter=0;" edge="1" parent="1" source="wONwnX8xnfEjbuY0eT6S-4" target="wONwnX8xnfEjbuY0eT6S-42">
          <mxGeometry relative="1" as="geometry">
            <Array as="points">
              <mxPoint x="5" y="596" />
              <mxPoint x="-169" y="596" />
            </Array>
          </mxGeometry>
        </mxCell>
        <mxCell id="wONwnX8xnfEjbuY0eT6S-46" style="edgeStyle=orthogonalEdgeStyle;rounded=0;orthogonalLoop=1;jettySize=auto;html=1;" edge="1" parent="1" source="wONwnX8xnfEjbuY0eT6S-44">
          <mxGeometry relative="1" as="geometry">
            <mxPoint x="-677.5" y="730" as="targetPoint" />
          </mxGeometry>
        </mxCell>
        <mxCell id="wONwnX8xnfEjbuY0eT6S-44" value="and now each node will have different validation" style="rounded=0;whiteSpace=wrap;html=1;" vertex="1" parent="1">
          <mxGeometry x="-805" y="560" width="255" height="60" as="geometry" />
        </mxCell>
        <mxCell id="wONwnX8xnfEjbuY0eT6S-53" style="edgeStyle=orthogonalEdgeStyle;rounded=0;orthogonalLoop=1;jettySize=auto;html=1;entryX=0;entryY=0.5;entryDx=0;entryDy=0;" edge="1" parent="1" source="wONwnX8xnfEjbuY0eT6S-47" target="wONwnX8xnfEjbuY0eT6S-52">
          <mxGeometry relative="1" as="geometry" />
        </mxCell>
        <mxCell id="wONwnX8xnfEjbuY0eT6S-55" style="edgeStyle=orthogonalEdgeStyle;rounded=0;orthogonalLoop=1;jettySize=auto;html=1;entryX=0;entryY=0.75;entryDx=0;entryDy=0;" edge="1" parent="1" source="wONwnX8xnfEjbuY0eT6S-47" target="wONwnX8xnfEjbuY0eT6S-50">
          <mxGeometry relative="1" as="geometry" />
        </mxCell>
        <mxCell id="wONwnX8xnfEjbuY0eT6S-47" value="and now each node will have different validation" style="rounded=0;whiteSpace=wrap;html=1;" vertex="1" parent="1">
          <mxGeometry x="-805" y="730" width="255" height="60" as="geometry" />
        </mxCell>
        <mxCell id="wONwnX8xnfEjbuY0eT6S-57" style="edgeStyle=orthogonalEdgeStyle;rounded=0;orthogonalLoop=1;jettySize=auto;html=1;entryX=-0.016;entryY=0.604;entryDx=0;entryDy=0;entryPerimeter=0;" edge="1" parent="1" source="wONwnX8xnfEjbuY0eT6S-50" target="wONwnX8xnfEjbuY0eT6S-58">
          <mxGeometry relative="1" as="geometry">
            <mxPoint x="-150" y="840" as="targetPoint" />
          </mxGeometry>
        </mxCell>
        <mxCell id="wONwnX8xnfEjbuY0eT6S-50" value="orderCommand" style="rounded=0;whiteSpace=wrap;html=1;" vertex="1" parent="1">
          <mxGeometry x="-510" y="810" width="255" height="60" as="geometry" />
        </mxCell>
        <mxCell id="wONwnX8xnfEjbuY0eT6S-56" style="edgeStyle=orthogonalEdgeStyle;rounded=0;orthogonalLoop=1;jettySize=auto;html=1;entryX=0.009;entryY=0.589;entryDx=0;entryDy=0;entryPerimeter=0;" edge="1" parent="1" source="wONwnX8xnfEjbuY0eT6S-51" target="wONwnX8xnfEjbuY0eT6S-58">
          <mxGeometry relative="1" as="geometry">
            <mxPoint x="-150" y="750" as="targetPoint" />
          </mxGeometry>
        </mxCell>
        <mxCell id="wONwnX8xnfEjbuY0eT6S-51" value="filterCommand" style="rounded=0;whiteSpace=wrap;html=1;" vertex="1" parent="1">
          <mxGeometry x="-510" y="720" width="255" height="60" as="geometry" />
        </mxCell>
        <mxCell id="wONwnX8xnfEjbuY0eT6S-60" value="" style="edgeStyle=orthogonalEdgeStyle;rounded=0;orthogonalLoop=1;jettySize=auto;html=1;" edge="1" parent="1" source="wONwnX8xnfEjbuY0eT6S-58" target="wONwnX8xnfEjbuY0eT6S-59">
          <mxGeometry relative="1" as="geometry" />
        </mxCell>
        <mxCell id="wONwnX8xnfEjbuY0eT6S-58" value="will check if the property is found" style="rounded=0;whiteSpace=wrap;html=1;" vertex="1" parent="1">
          <mxGeometry x="-160" y="760" width="255" height="60" as="geometry" />
        </mxCell>
        <mxCell id="wONwnX8xnfEjbuY0eT6S-52" value="pagination Command will consider the pageSize to not exceed the limit" style="rounded=0;whiteSpace=wrap;html=1;" vertex="1" parent="1">
          <mxGeometry x="-510" y="640" width="255" height="60" as="geometry" />
        </mxCell>
        <mxCell id="wONwnX8xnfEjbuY0eT6S-54" style="edgeStyle=orthogonalEdgeStyle;rounded=0;orthogonalLoop=1;jettySize=auto;html=1;entryX=0.017;entryY=0.541;entryDx=0;entryDy=0;entryPerimeter=0;" edge="1" parent="1" source="wONwnX8xnfEjbuY0eT6S-47" target="wONwnX8xnfEjbuY0eT6S-51">
          <mxGeometry relative="1" as="geometry" />
        </mxCell>
        <mxCell id="wONwnX8xnfEjbuY0eT6S-62" value="" style="edgeStyle=orthogonalEdgeStyle;rounded=0;orthogonalLoop=1;jettySize=auto;html=1;" edge="1" parent="1" source="wONwnX8xnfEjbuY0eT6S-59" target="wONwnX8xnfEjbuY0eT6S-61">
          <mxGeometry relative="1" as="geometry" />
        </mxCell>
        <mxCell id="wONwnX8xnfEjbuY0eT6S-59" value="Will use reflection to create expressions for the ef to convert to sql queries" style="rounded=0;whiteSpace=wrap;html=1;" vertex="1" parent="1">
          <mxGeometry x="175" y="760" width="255" height="60" as="geometry" />
        </mxCell>
        <mxCell id="wONwnX8xnfEjbuY0eT6S-61" value="and now DataQueryOptions&amp;lt;T&amp;gt; will just append the command query to the query root and then executes" style="rounded=0;whiteSpace=wrap;html=1;" vertex="1" parent="1">
          <mxGeometry x="510" y="760" width="255" height="60" as="geometry" />
        </mxCell>
        <mxCell id="wONwnX8xnfEjbuY0eT6S-63" style="edgeStyle=orthogonalEdgeStyle;rounded=0;orthogonalLoop=1;jettySize=auto;html=1;entryX=0.551;entryY=-0.072;entryDx=0;entryDy=0;entryPerimeter=0;" edge="1" parent="1" source="wONwnX8xnfEjbuY0eT6S-52" target="wONwnX8xnfEjbuY0eT6S-61">
          <mxGeometry relative="1" as="geometry" />
        </mxCell>
      </root>
    </mxGraphModel>
  </diagram>
</mxfile>
